<svg width="48" height="48" viewBox="0 0 48 48" fill="none" xmlns="http://www.w3.org/2000/svg">
<path d="M45.36 33.0133C42.08 33.0133 38.9067 32.48 35.9467 31.52C35.0133 31.2 33.9733 31.44 33.2533 32.16L29.0667 37.4133C21.52 33.8133 14.4533 27.0133 10.6933 19.2L15.8933 14.7733C16.6133 14.0267 16.8267 12.9867 16.5333 12.0533C15.5467 9.09333 15.04 5.92 15.04 2.64C15.04 1.2 13.84 0 12.4 0H3.17333C1.73333 0 0 0.64 0 2.64C0 27.4133 20.6133 48 45.36 48C47.2533 48 48 46.32 48 44.8533V35.6533C48 34.2133 46.8 33.0133 45.36 33.0133Z" fill="#06A852"/>
</svg>
