<svg width="64" height="64" viewBox="0 0 64 64" fill="none" xmlns="http://www.w3.org/2000/svg">
<g clip-path="url(#clip0)">
<path d="M62.7255 16.4945C62.3637 15.1329 61.6506 13.8903 60.6576 12.8909C59.6646 11.8915 58.4265 11.1705 57.0673 10.7999C52.0637 9.45447 32.0637 9.45447 32.0637 9.45447C32.0637 9.45447 12.0637 9.45447 7.06002 10.7999C5.70081 11.1705 4.46275 11.8915 3.46976 12.8909C2.47677 13.8903 1.76367 15.1329 1.40184 16.4945C0.0636598 21.5199 0.0636597 31.9999 0.0636597 31.9999C0.0636597 31.9999 0.0636598 42.4799 1.40184 47.5054C1.76367 48.8669 2.47677 50.1096 3.46976 51.109C4.46275 52.1083 5.70081 52.8294 7.06002 53.1999C12.0637 54.5454 32.0637 54.5454 32.0637 54.5454C32.0637 54.5454 52.0637 54.5454 57.0673 53.1999C58.4265 52.8294 59.6646 52.1083 60.6576 51.109C61.6506 50.1096 62.3637 48.8669 62.7255 47.5054C64.0637 42.4799 64.0637 31.9999 64.0637 31.9999C64.0637 31.9999 64.0637 21.5199 62.7255 16.4945Z" fill="#FF0302"/>
<path d="M25.5182 41.5164V22.4837L42.2454 32.0001L25.5182 41.5164Z" fill="#FEFEFE"/>
</g>
<defs>
<clipPath id="clip0">
<rect width="64" height="64" fill="white"/>
</clipPath>
</defs>
</svg>
