<svg width="54" height="54" viewBox="0 0 54 54" fill="none" xmlns="http://www.w3.org/2000/svg">
<path d="M26.9734 0.333313C12.2534 0.333313 0.333374 12.28 0.333374 27C0.333374 41.72 12.2534 53.6666 26.9734 53.6666C41.72 53.6666 53.6667 41.72 53.6667 27C53.6667 12.28 41.72 0.333313 26.9734 0.333313ZM45.4534 16.3333H37.5867C36.7334 13 35.5067 9.79998 33.9067 6.83998C38.8134 8.51998 42.8934 11.9333 45.4534 16.3333ZM27 5.77331C29.2134 8.97331 30.9467 12.52 32.0934 16.3333H21.9067C23.0534 12.52 24.7867 8.97331 27 5.77331ZM6.36004 32.3333C5.93337 30.6266 5.66671 28.84 5.66671 27C5.66671 25.16 5.93337 23.3733 6.36004 21.6666H15.3734C15.16 23.4266 15 25.1866 15 27C15 28.8133 15.16 30.5733 15.3734 32.3333H6.36004ZM8.54671 37.6666H16.4134C17.2667 41 18.4934 44.2 20.0934 47.16C15.1867 45.48 11.1067 42.0933 8.54671 37.6666ZM16.4134 16.3333H8.54671C11.1067 11.9066 15.1867 8.51998 20.0934 6.83998C18.4934 9.79998 17.2667 13 16.4134 16.3333ZM27 48.2266C24.7867 45.0266 23.0534 41.48 21.9067 37.6666H32.0934C30.9467 41.48 29.2134 45.0266 27 48.2266ZM33.24 32.3333H20.76C20.52 30.5733 20.3334 28.8133 20.3334 27C20.3334 25.1866 20.52 23.4 20.76 21.6666H33.24C33.48 23.4 33.6667 25.1866 33.6667 27C33.6667 28.8133 33.48 30.5733 33.24 32.3333ZM33.9067 47.16C35.5067 44.2 36.7334 41 37.5867 37.6666H45.4534C42.8934 42.0666 38.8134 45.48 33.9067 47.16ZM38.6267 32.3333C38.84 30.5733 39 28.8133 39 27C39 25.1866 38.84 23.4266 38.6267 21.6666H47.64C48.0667 23.3733 48.3334 25.16 48.3334 27C48.3334 28.84 48.0667 30.6266 47.64 32.3333H38.6267Z" fill="#F9F9F9"/>
</svg>
