<svg width="65" height="54" viewBox="0 0 65 54" fill="none" xmlns="http://www.w3.org/2000/svg">
<path d="M20.6267 53.0017C44.7778 53.0017 57.9874 32.9928 57.9874 15.6411C57.9874 15.0728 57.9874 14.507 57.949 13.9438C60.5188 12.085 62.7371 9.78351 64.5 7.14702C62.1037 8.20943 59.5614 8.90584 56.9582 9.21294C59.6995 7.57211 61.7511 4.99103 62.731 1.95022C60.1536 3.47984 57.3337 4.55776 54.3931 5.13742C52.4134 3.03229 49.795 1.63833 46.9432 1.17125C44.0914 0.704162 41.1651 1.18999 38.6172 2.55356C36.0694 3.91713 34.0419 6.08242 32.8486 8.71435C31.6554 11.3463 31.3628 14.2981 32.0162 17.1131C26.7957 16.8512 21.6887 15.4945 17.0265 13.131C12.3644 10.7676 8.25137 7.45012 4.9544 3.39406C3.27528 6.28472 2.76099 9.70667 3.51627 12.9632C4.27154 16.2197 6.23958 19.0659 9.01968 20.9224C6.92995 20.8612 4.88573 20.2974 3.06 19.2789V19.4453C3.06083 22.4769 4.11027 25.4149 6.03032 27.7609C7.95038 30.107 10.6228 31.7167 13.5944 32.3169C11.6613 32.8442 9.633 32.9213 7.66544 32.5422C8.50484 35.1511 10.1385 37.4325 12.338 39.0674C14.5375 40.7023 17.1929 41.6091 19.933 41.6609C17.2105 43.8009 14.0928 45.383 10.7583 46.3169C7.42382 47.2508 3.93791 47.5181 0.5 47.1035C6.50489 50.9569 13.4918 53.0009 20.6267 52.9915" fill="#1DA1F2"/>
</svg>
